<svg preserveAspectRatio="none" width="100%" height="100%" overflow="visible" style="display: block;" viewBox="0 0 20 20" fill="none" xmlns="http://www.w3.org/2000/svg">
<g id="Group">
<path id="Vector" d="M4.99995 7.667C4.99995 6.95967 5.28093 6.28131 5.78109 5.78115C6.28125 5.28099 6.95961 5 7.66695 5H16.333C16.6831 5 17.0299 5.06899 17.3535 5.20301C17.6771 5.33704 17.9711 5.53349 18.2187 5.78115C18.4665 6.0288 18.6629 6.32281 18.7969 6.64639C18.931 6.96996 18.9999 7.31676 18.9999 7.667V16.3331C18.9999 16.6832 18.931 17.03 18.7969 17.3536C18.6629 17.6772 18.4665 17.9712 18.2187 18.2188C17.9711 18.4665 17.6771 18.6629 17.3535 18.7969C17.0299 18.9311 16.6831 19 16.333 19H7.66695C7.31671 19 6.96991 18.9311 6.64633 18.7969C6.32276 18.6629 6.02875 18.4665 5.78109 18.2188C5.53344 17.9712 5.33699 17.6772 5.20296 17.3536C5.06893 17.03 4.99995 16.6832 4.99995 16.3331V7.667Z" stroke="white" stroke-width="2" stroke-linecap="round" stroke-linejoin="round"/>
<path id="Vector_2" d="M2.012 14.7369C1.70535 14.5621 1.45027 14.3095 1.27258 14.0045C1.09488 13.6995 1.00086 13.3529 1 13V3C1 1.9 1.9 1 3 1H13C13.75 1 14.158 1.385 14.5 2" stroke="white" stroke-width="2" stroke-linecap="round" stroke-linejoin="round"/>
</g>
</svg>
