<svg preserveAspectRatio="none" width="100%" height="100%" overflow="visible" style="display: block;" viewBox="0 0 186.522 527.235" fill="none" xmlns="http://www.w3.org/2000/svg">
<g id="68f5c5c7c6a552d1f3bc2d02_Drop%20Line.svg">
<path id="Vector" d="M32.3304 93.2614C32.6738 93.2614 32.9521 73.4977 32.9521 49.1179C32.9521 24.7381 32.6738 4.97443 32.3304 4.97443C31.987 4.97443 31.7087 24.7381 31.7087 49.1179C31.7087 73.4977 31.987 93.2614 32.3304 93.2614Z" fill="url(#paint0_linear_458_304)" fill-opacity="0.5"/>
<g id="Group" filter="url(#filter0_f_458_304)">
<path id="Vector_2" d="M57.8217 495.894C58.1651 495.894 58.4434 476.131 58.4434 451.751C58.4434 427.371 58.1651 407.607 57.8217 407.607C57.4783 407.607 57.2 427.371 57.2 451.751C57.2 476.131 57.4783 495.894 57.8217 495.894Z" fill="url(#paint1_linear_458_304)" fill-opacity="0.2"/>
</g>
<path id="Vector_3" d="M71.5 438.695C71.8434 438.695 72.1218 418.931 72.1218 394.552C72.1218 370.172 71.8434 350.408 71.5 350.408C71.1567 350.408 70.8783 370.172 70.8783 394.552C70.8783 418.931 71.1567 438.695 71.5 438.695Z" fill="url(#paint2_linear_458_304)" fill-opacity="0.1"/>
<g id="Group_2" filter="url(#filter1_f_458_304)">
<path id="Vector_4" d="M83.9347 525.738C84.2781 525.738 84.5565 505.974 84.5565 481.595C84.5565 457.215 84.2781 437.451 83.9347 437.451C83.5914 437.451 83.313 457.215 83.313 481.595C83.313 505.974 83.5914 525.738 83.9347 525.738Z" fill="url(#paint3_linear_458_304)" fill-opacity="0.1"/>
</g>
<path id="Vector_5" d="M83.9347 364.087C84.2781 364.087 84.5565 344.323 84.5565 319.943C84.5565 295.563 84.2781 275.8 83.9347 275.8C83.5914 275.8 83.313 295.563 83.313 319.943C83.313 344.323 83.5914 364.087 83.9347 364.087Z" fill="url(#paint4_linear_458_304)" fill-opacity="0.1"/>
<path id="Vector_6" d="M95.1261 388.956C95.4695 388.956 95.7479 369.192 95.7479 344.812C95.7479 320.433 95.4695 300.669 95.1261 300.669C94.7828 300.669 94.5044 320.433 94.5044 344.812C94.5044 369.192 94.7828 388.956 95.1261 388.956Z" fill="url(#paint5_linear_458_304)" fill-opacity="0.1"/>
<g id="Group_3" filter="url(#filter2_f_458_304)">
<path id="Vector_7" d="M108.804 513.304C109.148 513.304 109.426 493.54 109.426 469.16C109.426 444.78 109.148 425.017 108.804 425.017C108.461 425.017 108.183 444.78 108.183 469.16C108.183 493.54 108.461 513.304 108.804 513.304Z" fill="url(#paint6_linear_458_304)" fill-opacity="0.4"/>
</g>
<path id="Vector_8" d="M96.3696 264.607C96.7129 264.607 96.9913 244.844 96.9913 220.464C96.9913 196.084 96.7129 176.32 96.3696 176.32C96.0262 176.32 95.7478 196.084 95.7478 220.464C95.7478 244.844 96.0262 264.607 96.3696 264.607Z" fill="url(#paint7_linear_458_304)" fill-opacity="0.5"/>
<g id="Group_4" filter="url(#filter3_f_458_304)">
<path id="Vector_9" d="M121.861 440.192C122.204 440.192 122.483 429.058 122.483 415.323C122.483 401.588 122.204 390.453 121.861 390.453C121.517 390.453 121.239 401.588 121.239 415.323C121.239 429.058 121.517 440.192 121.861 440.192Z" fill="url(#paint8_linear_458_304)" fill-opacity="0.2"/>
</g>
<path id="Vector_10" d="M32.9522 202.433C33.2956 202.433 33.5739 182.67 33.5739 158.29C33.5739 133.91 33.2956 114.146 32.9522 114.146C32.6088 114.146 32.3304 133.91 32.3304 158.29C32.3304 182.67 32.6088 202.433 32.9522 202.433Z" fill="url(#paint9_linear_458_304)" fill-opacity="0.2"/>
<path id="Vector_11" d="M1.2435 93.2614C1.58687 93.2614 1.86524 73.4977 1.86524 49.1179C1.86524 24.7381 1.58687 4.97443 1.2435 4.97443C0.900119 4.97443 0.621757 24.7381 0.621757 49.1179C0.621757 73.4977 0.900119 93.2614 1.2435 93.2614Z" fill="url(#paint10_linear_458_304)" fill-opacity="0.2"/>
<path id="Vector_12" d="M185.278 93.2614C185.622 93.2614 185.9 73.4977 185.9 49.1179C185.9 24.7381 185.622 4.97443 185.278 4.97443C184.935 4.97443 184.657 24.7381 184.657 49.1179C184.657 73.4977 184.935 93.2614 185.278 93.2614Z" fill="url(#paint11_linear_458_304)" fill-opacity="0.2"/>
<path id="Vector_13" d="M167.87 186.522C168.213 186.522 168.491 166.759 168.491 142.379C168.491 117.999 168.213 98.2353 167.87 98.2353C167.526 98.2353 167.248 117.999 167.248 142.379C167.248 166.759 167.526 186.522 167.87 186.522Z" fill="url(#paint12_linear_458_304)" fill-opacity="0.2"/>
<g id="Group_5" filter="url(#filter4_f_458_304)">
<path id="Vector_14" d="M180.304 323.304C180.648 323.304 180.926 303.541 180.926 279.161C180.926 254.781 180.648 235.017 180.304 235.017C179.961 235.017 179.683 254.781 179.683 279.161C179.683 303.541 179.961 323.304 180.304 323.304Z" fill="url(#paint13_linear_458_304)" fill-opacity="0.2"/>
</g>
<g id="Group_6" filter="url(#filter5_f_458_304)">
<path id="Vector_15" d="M8.70439 254.914C9.04776 254.914 9.32613 235.15 9.32613 210.771C9.32613 186.391 9.04776 166.627 8.70439 166.627C8.36101 166.627 8.08265 186.391 8.08265 210.771C8.08265 235.15 8.36101 254.914 8.70439 254.914Z" fill="url(#paint14_linear_458_304)" fill-opacity="0.2"/>
</g>
<g id="Group_7" filter="url(#filter6_f_458_304)">
<path id="Vector_16" d="M18.6522 391.696C18.9955 391.696 19.2739 371.932 19.2739 347.553C19.2739 323.173 18.9955 303.409 18.6522 303.409C18.3088 303.409 18.0304 323.173 18.0304 347.553C18.0304 371.932 18.3088 391.696 18.6522 391.696Z" fill="url(#paint15_linear_458_304)" fill-opacity="0.2"/>
</g>
<path id="Vector_17" d="M57.8217 110.417C58.1651 110.417 58.4434 90.6531 58.4434 66.2734C58.4434 41.8936 58.1651 22.1299 57.8217 22.1299C57.4783 22.1299 57.2 41.8936 57.2 66.2734C57.2 90.6531 57.4783 110.417 57.8217 110.417Z" fill="url(#paint16_linear_458_304)" fill-opacity="0.7"/>
<path id="Vector_18" d="M76.4739 89.2782C76.8172 89.2782 77.0956 69.5145 77.0956 45.1347C77.0956 20.7549 76.8172 0.991211 76.4739 0.991211C76.1305 0.991211 75.8521 20.7549 75.8521 45.1347C75.8521 69.5145 76.1305 89.2782 76.4739 89.2782Z" fill="url(#paint17_linear_458_304)" fill-opacity="0.7"/>
<path id="Vector_19" d="M51.6043 151.451C51.9477 151.451 52.2261 131.687 52.2261 107.308C52.2261 82.9278 51.9477 63.1641 51.6043 63.1641C51.261 63.1641 50.9826 82.9278 50.9826 107.308C50.9826 131.687 51.261 151.451 51.6043 151.451Z" fill="url(#paint18_linear_458_304)" fill-opacity="0.7"/>
<path id="Vector_20" d="M88.9087 238.494C89.2521 238.494 89.5304 218.73 89.5304 194.35C89.5304 169.971 89.2521 150.207 88.9087 150.207C88.5653 150.207 88.2869 169.971 88.2869 194.35C88.2869 218.73 88.5653 238.494 88.9087 238.494Z" fill="url(#paint19_linear_458_304)" fill-opacity="0.7"/>
<path id="Vector_21" d="M131.809 101.966C132.152 101.966 132.43 82.202 132.43 57.8222C132.43 33.4424 132.152 13.6787 131.809 13.6787C131.465 13.6787 131.187 33.4424 131.187 57.8222C131.187 82.202 131.465 101.966 131.809 101.966Z" fill="url(#paint20_linear_458_304)" fill-opacity="0.7"/>
<path id="Vector_22" d="M119.996 387.711C120.339 387.711 120.617 367.947 120.617 343.567C120.617 319.188 120.339 299.424 119.996 299.424C119.652 299.424 119.374 319.188 119.374 343.567C119.374 367.947 119.652 387.711 119.996 387.711Z" fill="url(#paint21_linear_458_304)" fill-opacity="0.3"/>
<path id="Vector_23" d="M57.8217 337.973C58.1651 337.973 58.4434 318.21 58.4434 293.83C58.4434 269.45 58.1651 249.687 57.8217 249.687C57.4783 249.687 57.2 269.45 57.2 293.83C57.2 318.21 57.4783 337.973 57.8217 337.973Z" fill="url(#paint22_linear_458_304)" fill-opacity="0.2"/>
<path id="Vector_24" d="M126.213 176.32C126.556 176.32 126.835 156.556 126.835 132.177C126.835 107.797 126.556 88.0332 126.213 88.0332C125.87 88.0332 125.591 107.797 125.591 132.177C125.591 156.556 125.87 176.32 126.213 176.32Z" fill="url(#paint23_linear_458_304)" fill-opacity="0.7"/>
<path id="Vector_25" d="M101.965 67.1475C102.309 67.1475 102.587 56.5697 102.587 43.5214C102.587 30.4731 102.309 19.8953 101.965 19.8953C101.622 19.8953 101.343 30.4731 101.343 43.5214C101.343 56.5697 101.622 67.1475 101.965 67.1475Z" fill="url(#paint24_linear_458_304)"/>
<path id="Vector_26" d="M77.0956 191.495C77.439 191.495 77.7174 180.918 77.7174 167.869C77.7174 154.821 77.439 144.243 77.0956 144.243C76.7522 144.243 76.4739 154.821 76.4739 167.869C76.4739 180.918 76.7522 191.495 77.0956 191.495Z" fill="url(#paint25_linear_458_304)" fill-opacity="0.5"/>
<g id="Group_8" filter="url(#filter7_f_458_304)">
<path id="Vector_27" d="M152.326 346.677C152.669 346.677 152.948 326.913 152.948 302.533C152.948 278.154 152.669 258.39 152.326 258.39C151.983 258.39 151.704 278.154 151.704 302.533C151.704 326.913 151.983 346.677 152.326 346.677Z" fill="url(#paint26_linear_458_304)" fill-opacity="0.4"/>
</g>
<path id="Vector_28" d="M28.6 355.635C28.9434 355.635 29.2217 345.057 29.2217 332.009C29.2217 318.961 28.9434 308.383 28.6 308.383C28.2566 308.383 27.9783 318.961 27.9783 332.009C27.9783 345.057 28.2566 355.635 28.6 355.635Z" fill="url(#paint27_linear_458_304)" fill-opacity="0.1"/>
<path id="Vector_29" d="M139.891 495.894C140.235 495.894 140.513 476.131 140.513 451.751C140.513 427.371 140.235 407.607 139.891 407.607C139.548 407.607 139.27 427.371 139.27 451.751C139.27 476.131 139.548 495.894 139.891 495.894Z" fill="url(#paint28_linear_458_304)" fill-opacity="0.1"/>
</g>
<defs>
<filter id="filter0_f_458_304" x="54.713" y="405.121" width="6.21739" height="93.2609" filterUnits="userSpaceOnUse" color-interpolation-filters="sRGB">
<feFlood flood-opacity="0" result="BackgroundImageFix"/>
<feBlend mode="normal" in="SourceGraphic" in2="BackgroundImageFix" result="shape"/>
<feGaussianBlur stdDeviation="1.24348" result="effect1_foregroundBlur_458_304"/>
</filter>
<filter id="filter1_f_458_304" x="82.0695" y="436.208" width="3.73043" height="90.7739" filterUnits="userSpaceOnUse" color-interpolation-filters="sRGB">
<feFlood flood-opacity="0" result="BackgroundImageFix"/>
<feBlend mode="normal" in="SourceGraphic" in2="BackgroundImageFix" result="shape"/>
<feGaussianBlur stdDeviation="0.621739" result="effect1_foregroundBlur_458_304"/>
</filter>
<filter id="filter2_f_458_304" x="105.696" y="422.53" width="6.21739" height="93.2609" filterUnits="userSpaceOnUse" color-interpolation-filters="sRGB">
<feFlood flood-opacity="0" result="BackgroundImageFix"/>
<feBlend mode="normal" in="SourceGraphic" in2="BackgroundImageFix" result="shape"/>
<feGaussianBlur stdDeviation="1.24348" result="effect1_foregroundBlur_458_304"/>
</filter>
<filter id="filter3_f_458_304" x="119.996" y="389.21" width="3.73043" height="52.2261" filterUnits="userSpaceOnUse" color-interpolation-filters="sRGB">
<feFlood flood-opacity="0" result="BackgroundImageFix"/>
<feBlend mode="normal" in="SourceGraphic" in2="BackgroundImageFix" result="shape"/>
<feGaussianBlur stdDeviation="0.621739" result="effect1_foregroundBlur_458_304"/>
</filter>
<filter id="filter4_f_458_304" x="178.439" y="233.774" width="3.73044" height="90.7739" filterUnits="userSpaceOnUse" color-interpolation-filters="sRGB">
<feFlood flood-opacity="0" result="BackgroundImageFix"/>
<feBlend mode="normal" in="SourceGraphic" in2="BackgroundImageFix" result="shape"/>
<feGaussianBlur stdDeviation="0.621739" result="effect1_foregroundBlur_458_304"/>
</filter>
<filter id="filter5_f_458_304" x="5.59569" y="164.14" width="6.21739" height="93.2609" filterUnits="userSpaceOnUse" color-interpolation-filters="sRGB">
<feFlood flood-opacity="0" result="BackgroundImageFix"/>
<feBlend mode="normal" in="SourceGraphic" in2="BackgroundImageFix" result="shape"/>
<feGaussianBlur stdDeviation="1.24348" result="effect1_foregroundBlur_458_304"/>
</filter>
<filter id="filter6_f_458_304" x="16.7869" y="302.166" width="3.73044" height="90.7739" filterUnits="userSpaceOnUse" color-interpolation-filters="sRGB">
<feFlood flood-opacity="0" result="BackgroundImageFix"/>
<feBlend mode="normal" in="SourceGraphic" in2="BackgroundImageFix" result="shape"/>
<feGaussianBlur stdDeviation="0.621739" result="effect1_foregroundBlur_458_304"/>
</filter>
<filter id="filter7_f_458_304" x="149.217" y="255.903" width="6.2174" height="93.2609" filterUnits="userSpaceOnUse" color-interpolation-filters="sRGB">
<feFlood flood-opacity="0" result="BackgroundImageFix"/>
<feBlend mode="normal" in="SourceGraphic" in2="BackgroundImageFix" result="shape"/>
<feGaussianBlur stdDeviation="1.24348" result="effect1_foregroundBlur_458_304"/>
</filter>
<linearGradient id="paint0_linear_458_304" x1="32.3304" y1="4.97443" x2="32.3304" y2="93.2614" gradientUnits="userSpaceOnUse">
<stop stop-color="white" stop-opacity="0"/>
<stop offset="0.5" stop-color="white"/>
<stop offset="1" stop-color="white" stop-opacity="0"/>
</linearGradient>
<linearGradient id="paint1_linear_458_304" x1="57.8217" y1="407.607" x2="57.8217" y2="495.894" gradientUnits="userSpaceOnUse">
<stop stop-color="white" stop-opacity="0"/>
<stop offset="0.5" stop-color="white"/>
<stop offset="1" stop-color="white" stop-opacity="0"/>
</linearGradient>
<linearGradient id="paint2_linear_458_304" x1="71.5" y1="350.408" x2="71.5" y2="438.695" gradientUnits="userSpaceOnUse">
<stop stop-color="white" stop-opacity="0"/>
<stop offset="0.5" stop-color="white"/>
<stop offset="1" stop-color="white" stop-opacity="0"/>
</linearGradient>
<linearGradient id="paint3_linear_458_304" x1="83.9347" y1="437.451" x2="83.9347" y2="525.738" gradientUnits="userSpaceOnUse">
<stop stop-color="white" stop-opacity="0"/>
<stop offset="0.5" stop-color="white"/>
<stop offset="1" stop-color="white" stop-opacity="0"/>
</linearGradient>
<linearGradient id="paint4_linear_458_304" x1="83.9347" y1="275.8" x2="83.9347" y2="364.087" gradientUnits="userSpaceOnUse">
<stop stop-color="white" stop-opacity="0"/>
<stop offset="0.5" stop-color="white"/>
<stop offset="1" stop-color="white" stop-opacity="0"/>
</linearGradient>
<linearGradient id="paint5_linear_458_304" x1="95.1261" y1="300.669" x2="95.1261" y2="388.956" gradientUnits="userSpaceOnUse">
<stop stop-color="white" stop-opacity="0"/>
<stop offset="0.5" stop-color="white"/>
<stop offset="1" stop-color="white" stop-opacity="0"/>
</linearGradient>
<linearGradient id="paint6_linear_458_304" x1="108.804" y1="425.017" x2="108.804" y2="513.304" gradientUnits="userSpaceOnUse">
<stop stop-color="white" stop-opacity="0"/>
<stop offset="0.5" stop-color="white"/>
<stop offset="1" stop-color="white" stop-opacity="0"/>
</linearGradient>
<linearGradient id="paint7_linear_458_304" x1="96.3696" y1="176.32" x2="96.3696" y2="264.607" gradientUnits="userSpaceOnUse">
<stop stop-color="white" stop-opacity="0"/>
<stop offset="0.5" stop-color="white"/>
<stop offset="1" stop-color="white" stop-opacity="0"/>
</linearGradient>
<linearGradient id="paint8_linear_458_304" x1="121.861" y1="390.453" x2="121.861" y2="440.192" gradientUnits="userSpaceOnUse">
<stop stop-color="white" stop-opacity="0"/>
<stop offset="0.5" stop-color="white"/>
<stop offset="1" stop-color="white" stop-opacity="0"/>
</linearGradient>
<linearGradient id="paint9_linear_458_304" x1="32.9522" y1="114.147" x2="32.9522" y2="202.433" gradientUnits="userSpaceOnUse">
<stop stop-color="white" stop-opacity="0"/>
<stop offset="0.5" stop-color="white"/>
<stop offset="1" stop-color="white" stop-opacity="0"/>
</linearGradient>
<linearGradient id="paint10_linear_458_304" x1="1.24349" y1="4.97443" x2="1.24349" y2="93.2614" gradientUnits="userSpaceOnUse">
<stop stop-color="white" stop-opacity="0"/>
<stop offset="0.5" stop-color="white"/>
<stop offset="1" stop-color="white" stop-opacity="0"/>
</linearGradient>
<linearGradient id="paint11_linear_458_304" x1="185.278" y1="4.97443" x2="185.278" y2="93.2614" gradientUnits="userSpaceOnUse">
<stop stop-color="white" stop-opacity="0"/>
<stop offset="0.5" stop-color="white"/>
<stop offset="1" stop-color="white" stop-opacity="0"/>
</linearGradient>
<linearGradient id="paint12_linear_458_304" x1="167.87" y1="98.2353" x2="167.87" y2="186.522" gradientUnits="userSpaceOnUse">
<stop stop-color="white" stop-opacity="0"/>
<stop offset="0.5" stop-color="white"/>
<stop offset="1" stop-color="white" stop-opacity="0"/>
</linearGradient>
<linearGradient id="paint13_linear_458_304" x1="180.304" y1="235.017" x2="180.304" y2="323.304" gradientUnits="userSpaceOnUse">
<stop stop-color="white" stop-opacity="0"/>
<stop offset="0.5" stop-color="white"/>
<stop offset="1" stop-color="white" stop-opacity="0"/>
</linearGradient>
<linearGradient id="paint14_linear_458_304" x1="8.70438" y1="166.627" x2="8.70438" y2="254.914" gradientUnits="userSpaceOnUse">
<stop stop-color="white" stop-opacity="0"/>
<stop offset="0.5" stop-color="white"/>
<stop offset="1" stop-color="white" stop-opacity="0"/>
</linearGradient>
<linearGradient id="paint15_linear_458_304" x1="18.6522" y1="303.409" x2="18.6522" y2="391.696" gradientUnits="userSpaceOnUse">
<stop stop-color="white" stop-opacity="0"/>
<stop offset="0.5" stop-color="white"/>
<stop offset="1" stop-color="white" stop-opacity="0"/>
</linearGradient>
<linearGradient id="paint16_linear_458_304" x1="57.8217" y1="22.1299" x2="57.8217" y2="110.417" gradientUnits="userSpaceOnUse">
<stop stop-color="white" stop-opacity="0"/>
<stop offset="0.5" stop-color="white"/>
<stop offset="1" stop-color="white" stop-opacity="0"/>
</linearGradient>
<linearGradient id="paint17_linear_458_304" x1="76.4738" y1="0.991195" x2="76.4738" y2="89.2782" gradientUnits="userSpaceOnUse">
<stop stop-color="white" stop-opacity="0"/>
<stop offset="0.5" stop-color="white"/>
<stop offset="1" stop-color="white" stop-opacity="0"/>
</linearGradient>
<linearGradient id="paint18_linear_458_304" x1="51.6043" y1="63.1641" x2="51.6043" y2="151.451" gradientUnits="userSpaceOnUse">
<stop stop-color="white" stop-opacity="0"/>
<stop offset="0.5" stop-color="white"/>
<stop offset="1" stop-color="white" stop-opacity="0"/>
</linearGradient>
<linearGradient id="paint19_linear_458_304" x1="88.9087" y1="150.207" x2="88.9087" y2="238.494" gradientUnits="userSpaceOnUse">
<stop stop-color="white" stop-opacity="0"/>
<stop offset="0.5" stop-color="white"/>
<stop offset="1" stop-color="white" stop-opacity="0"/>
</linearGradient>
<linearGradient id="paint20_linear_458_304" x1="131.809" y1="13.6787" x2="131.809" y2="101.966" gradientUnits="userSpaceOnUse">
<stop stop-color="white" stop-opacity="0"/>
<stop offset="0.5" stop-color="white"/>
<stop offset="1" stop-color="white" stop-opacity="0"/>
</linearGradient>
<linearGradient id="paint21_linear_458_304" x1="119.996" y1="299.424" x2="119.996" y2="387.711" gradientUnits="userSpaceOnUse">
<stop stop-color="white" stop-opacity="0"/>
<stop offset="0.5" stop-color="white"/>
<stop offset="1" stop-color="white" stop-opacity="0"/>
</linearGradient>
<linearGradient id="paint22_linear_458_304" x1="57.8217" y1="249.687" x2="57.8217" y2="337.973" gradientUnits="userSpaceOnUse">
<stop stop-color="white" stop-opacity="0"/>
<stop offset="0.5" stop-color="white"/>
<stop offset="1" stop-color="white" stop-opacity="0"/>
</linearGradient>
<linearGradient id="paint23_linear_458_304" x1="126.213" y1="88.0337" x2="126.213" y2="176.32" gradientUnits="userSpaceOnUse">
<stop stop-color="white" stop-opacity="0"/>
<stop offset="0.5" stop-color="white"/>
<stop offset="1" stop-color="white" stop-opacity="0"/>
</linearGradient>
<linearGradient id="paint24_linear_458_304" x1="101.965" y1="19.8953" x2="101.965" y2="67.1475" gradientUnits="userSpaceOnUse">
<stop stop-color="white" stop-opacity="0"/>
<stop offset="0.5" stop-color="white"/>
<stop offset="1" stop-color="white" stop-opacity="0"/>
</linearGradient>
<linearGradient id="paint25_linear_458_304" x1="77.0956" y1="144.243" x2="77.0956" y2="191.495" gradientUnits="userSpaceOnUse">
<stop stop-color="white" stop-opacity="0"/>
<stop offset="0.5" stop-color="white"/>
<stop offset="1" stop-color="white" stop-opacity="0"/>
</linearGradient>
<linearGradient id="paint26_linear_458_304" x1="152.326" y1="258.39" x2="152.326" y2="346.677" gradientUnits="userSpaceOnUse">
<stop stop-color="white" stop-opacity="0"/>
<stop offset="0.5" stop-color="white"/>
<stop offset="1" stop-color="white" stop-opacity="0"/>
</linearGradient>
<linearGradient id="paint27_linear_458_304" x1="28.6" y1="308.383" x2="28.6" y2="355.635" gradientUnits="userSpaceOnUse">
<stop stop-color="white" stop-opacity="0"/>
<stop offset="0.5" stop-color="white"/>
<stop offset="1" stop-color="white" stop-opacity="0"/>
</linearGradient>
<linearGradient id="paint28_linear_458_304" x1="139.891" y1="407.607" x2="139.891" y2="495.894" gradientUnits="userSpaceOnUse">
<stop stop-color="white" stop-opacity="0"/>
<stop offset="0.5" stop-color="white"/>
<stop offset="1" stop-color="white" stop-opacity="0"/>
</linearGradient>
</defs>
</svg>
