<svg preserveAspectRatio="none" width="100%" height="100%" overflow="visible" style="display: block;" viewBox="0 0 186.522 527.235" fill="none" xmlns="http://www.w3.org/2000/svg">
<g id="68f5c5c7c6a552d1f3bc2d02_Drop%20Line.svg">
<path id="Vector" d="M32.3304 93.2606C32.6738 93.2606 32.9522 73.4969 32.9522 49.1171C32.9522 24.7373 32.6738 4.97363 32.3304 4.97363C31.987 4.97363 31.7087 24.7373 31.7087 49.1171C31.7087 73.4969 31.987 93.2606 32.3304 93.2606Z" fill="url(#paint0_linear_458_265)" fill-opacity="0.5"/>
<g id="Group" filter="url(#filter0_f_458_265)">
<path id="Vector_2" d="M57.8217 495.895C58.1651 495.895 58.4434 476.132 58.4434 451.752C58.4434 427.372 58.1651 407.608 57.8217 407.608C57.4783 407.608 57.2 427.372 57.2 451.752C57.2 476.132 57.4783 495.895 57.8217 495.895Z" fill="url(#paint1_linear_458_265)" fill-opacity="0.2"/>
</g>
<path id="Vector_3" d="M71.5 438.694C71.8434 438.694 72.1218 418.93 72.1218 394.551C72.1218 370.171 71.8434 350.407 71.5 350.407C71.1567 350.407 70.8783 370.171 70.8783 394.551C70.8783 418.93 71.1567 438.694 71.5 438.694Z" fill="url(#paint2_linear_458_265)" fill-opacity="0.1"/>
<g id="Group_2" filter="url(#filter1_f_458_265)">
<path id="Vector_4" d="M83.9348 525.737C84.2782 525.737 84.5565 505.973 84.5565 481.594C84.5565 457.214 84.2782 437.45 83.9348 437.45C83.5914 437.45 83.313 457.214 83.313 481.594C83.313 505.973 83.5914 525.737 83.9348 525.737Z" fill="url(#paint3_linear_458_265)" fill-opacity="0.1"/>
</g>
<path id="Vector_5" d="M83.9348 364.086C84.2781 364.086 84.5565 344.322 84.5565 319.942C84.5565 295.563 84.2781 275.799 83.9348 275.799C83.5914 275.799 83.313 295.563 83.313 319.942C83.313 344.322 83.5914 364.086 83.9348 364.086Z" fill="url(#paint4_linear_458_265)" fill-opacity="0.1"/>
<path id="Vector_6" d="M95.1261 388.955C95.4695 388.955 95.7479 369.191 95.7479 344.811C95.7479 320.432 95.4695 300.668 95.1261 300.668C94.7827 300.668 94.5044 320.432 94.5044 344.811C94.5044 369.191 94.7827 388.955 95.1261 388.955Z" fill="url(#paint5_linear_458_265)" fill-opacity="0.1"/>
<g id="Group_3" filter="url(#filter2_f_458_265)">
<path id="Vector_7" d="M108.804 513.304C109.148 513.304 109.426 493.54 109.426 469.16C109.426 444.78 109.148 425.017 108.804 425.017C108.461 425.017 108.183 444.78 108.183 469.16C108.183 493.54 108.461 513.304 108.804 513.304Z" fill="url(#paint6_linear_458_265)" fill-opacity="0.4"/>
</g>
<path id="Vector_8" d="M96.3695 264.606C96.7129 264.606 96.9913 244.843 96.9913 220.463C96.9913 196.083 96.7129 176.319 96.3695 176.319C96.0262 176.319 95.7478 196.083 95.7478 220.463C95.7478 244.843 96.0262 264.606 96.3695 264.606Z" fill="url(#paint7_linear_458_265)" fill-opacity="0.5"/>
<g id="Group_4" filter="url(#filter3_f_458_265)">
<path id="Vector_9" d="M121.861 440.191C122.204 440.191 122.483 429.057 122.483 415.322C122.483 401.587 122.204 390.452 121.861 390.452C121.517 390.452 121.239 401.587 121.239 415.322C121.239 429.057 121.517 440.191 121.861 440.191Z" fill="url(#paint8_linear_458_265)" fill-opacity="0.2"/>
</g>
<path id="Vector_10" d="M32.9522 202.433C33.2955 202.433 33.5739 182.67 33.5739 158.29C33.5739 133.91 33.2955 114.146 32.9522 114.146C32.6088 114.146 32.3304 133.91 32.3304 158.29C32.3304 182.67 32.6088 202.433 32.9522 202.433Z" fill="url(#paint9_linear_458_265)" fill-opacity="0.2"/>
<path id="Vector_11" d="M1.2435 93.2606C1.58688 93.2606 1.86524 73.4969 1.86524 49.1171C1.86524 24.7373 1.58688 4.97363 1.2435 4.97363C0.900127 4.97363 0.621765 24.7373 0.621765 49.1171C0.621765 73.4969 0.900127 93.2606 1.2435 93.2606Z" fill="url(#paint10_linear_458_265)" fill-opacity="0.2"/>
<path id="Vector_12" d="M185.278 93.2606C185.622 93.2606 185.9 73.4969 185.9 49.1171C185.9 24.7373 185.622 4.97363 185.278 4.97363C184.935 4.97363 184.656 24.7373 184.656 49.1171C184.656 73.4969 184.935 93.2606 185.278 93.2606Z" fill="url(#paint11_linear_458_265)" fill-opacity="0.2"/>
<path id="Vector_13" d="M167.87 186.521C168.213 186.521 168.491 166.758 168.491 142.378C168.491 117.998 168.213 98.2344 167.87 98.2344C167.526 98.2344 167.248 117.998 167.248 142.378C167.248 166.758 167.526 186.521 167.87 186.521Z" fill="url(#paint12_linear_458_265)" fill-opacity="0.2"/>
<g id="Group_5" filter="url(#filter4_f_458_265)">
<path id="Vector_14" d="M180.304 323.304C180.648 323.304 180.926 303.54 180.926 279.16C180.926 254.78 180.648 235.017 180.304 235.017C179.961 235.017 179.683 254.78 179.683 279.16C179.683 303.54 179.961 323.304 180.304 323.304Z" fill="url(#paint13_linear_458_265)" fill-opacity="0.2"/>
</g>
<g id="Group_6" filter="url(#filter5_f_458_265)">
<path id="Vector_15" d="M8.70438 254.914C9.04776 254.914 9.32612 235.15 9.32612 210.77C9.32612 186.391 9.04776 166.627 8.70438 166.627C8.361 166.627 8.08264 186.391 8.08264 210.77C8.08264 235.15 8.361 254.914 8.70438 254.914Z" fill="url(#paint14_linear_458_265)" fill-opacity="0.2"/>
</g>
<g id="Group_7" filter="url(#filter6_f_458_265)">
<path id="Vector_16" d="M18.6521 391.695C18.9955 391.695 19.2739 371.931 19.2739 347.552C19.2739 323.172 18.9955 303.408 18.6521 303.408C18.3088 303.408 18.0304 323.172 18.0304 347.552C18.0304 371.931 18.3088 391.695 18.6521 391.695Z" fill="url(#paint15_linear_458_265)" fill-opacity="0.2"/>
</g>
<path id="Vector_17" d="M57.8217 110.417C58.1651 110.417 58.4434 90.6531 58.4434 66.2734C58.4434 41.8936 58.1651 22.1299 57.8217 22.1299C57.4783 22.1299 57.2 41.8936 57.2 66.2734C57.2 90.6531 57.4783 110.417 57.8217 110.417Z" fill="url(#paint16_linear_458_265)" fill-opacity="0.7"/>
<path id="Vector_18" d="M76.4739 89.2774C76.8172 89.2774 77.0956 69.5136 77.0956 45.1339C77.0956 20.7541 76.8172 0.990394 76.4739 0.990394C76.1305 0.990394 75.8521 20.7541 75.8521 45.1339C75.8521 69.5136 76.1305 89.2774 76.4739 89.2774Z" fill="url(#paint17_linear_458_265)" fill-opacity="0.7"/>
<path id="Vector_19" d="M51.6043 151.451C51.9477 151.451 52.2261 131.687 52.2261 107.307C52.2261 82.9276 51.9477 63.1638 51.6043 63.1638C51.261 63.1638 50.9826 82.9276 50.9826 107.307C50.9826 131.687 51.261 151.451 51.6043 151.451Z" fill="url(#paint18_linear_458_265)" fill-opacity="0.7"/>
<path id="Vector_20" d="M88.9087 238.493C89.252 238.493 89.5304 218.729 89.5304 194.35C89.5304 169.97 89.252 150.206 88.9087 150.206C88.5653 150.206 88.2869 169.97 88.2869 194.35C88.2869 218.729 88.5653 238.493 88.9087 238.493Z" fill="url(#paint19_linear_458_265)" fill-opacity="0.7"/>
<path id="Vector_21" d="M131.809 101.965C132.152 101.965 132.43 82.2011 132.43 57.8213C132.43 33.4416 132.152 13.6779 131.809 13.6779C131.465 13.6779 131.187 33.4416 131.187 57.8213C131.187 82.2011 131.465 101.965 131.809 101.965Z" fill="url(#paint20_linear_458_265)" fill-opacity="0.7"/>
<path id="Vector_22" d="M119.996 387.711C120.339 387.711 120.617 367.947 120.617 343.567C120.617 319.187 120.339 299.424 119.996 299.424C119.652 299.424 119.374 319.187 119.374 343.567C119.374 367.947 119.652 387.711 119.996 387.711Z" fill="url(#paint21_linear_458_265)" fill-opacity="0.3"/>
<path id="Vector_23" d="M57.8217 337.973C58.1651 337.973 58.4434 318.209 58.4434 293.829C58.4434 269.449 58.1651 249.686 57.8217 249.686C57.4783 249.686 57.2 269.449 57.2 293.829C57.2 318.209 57.4783 337.973 57.8217 337.973Z" fill="url(#paint22_linear_458_265)" fill-opacity="0.2"/>
<path id="Vector_24" d="M126.213 176.32C126.556 176.32 126.835 156.556 126.835 132.177C126.835 107.797 126.556 88.0332 126.213 88.0332C125.87 88.0332 125.591 107.797 125.591 132.177C125.591 156.556 125.87 176.32 126.213 176.32Z" fill="url(#paint23_linear_458_265)" fill-opacity="0.7"/>
<path id="Vector_25" d="M101.965 67.1467C102.309 67.1467 102.587 56.5689 102.587 43.5206C102.587 30.4723 102.309 19.8945 101.965 19.8945C101.622 19.8945 101.343 30.4723 101.343 43.5206C101.343 56.5689 101.622 67.1467 101.965 67.1467Z" fill="url(#paint24_linear_458_265)"/>
<path id="Vector_26" d="M77.0956 191.495C77.439 191.495 77.7174 180.917 77.7174 167.869C77.7174 154.821 77.439 144.243 77.0956 144.243C76.7523 144.243 76.4739 154.821 76.4739 167.869C76.4739 180.917 76.7523 191.495 77.0956 191.495Z" fill="url(#paint25_linear_458_265)" fill-opacity="0.5"/>
<g id="Group_8" filter="url(#filter7_f_458_265)">
<path id="Vector_27" d="M152.326 346.676C152.669 346.676 152.948 326.913 152.948 302.533C152.948 278.153 152.669 258.389 152.326 258.389C151.983 258.389 151.704 278.153 151.704 302.533C151.704 326.913 151.983 346.676 152.326 346.676Z" fill="url(#paint26_linear_458_265)" fill-opacity="0.4"/>
</g>
<path id="Vector_28" d="M28.6 355.635C28.9434 355.635 29.2217 345.057 29.2217 332.009C29.2217 318.961 28.9434 308.383 28.6 308.383C28.2566 308.383 27.9783 318.961 27.9783 332.009C27.9783 345.057 28.2566 355.635 28.6 355.635Z" fill="url(#paint27_linear_458_265)" fill-opacity="0.1"/>
<path id="Vector_29" d="M139.891 495.893C140.235 495.893 140.513 476.13 140.513 451.75C140.513 427.37 140.235 407.606 139.891 407.606C139.548 407.606 139.27 427.37 139.27 451.75C139.27 476.13 139.548 495.893 139.891 495.893Z" fill="url(#paint28_linear_458_265)" fill-opacity="0.1"/>
</g>
<defs>
<filter id="filter0_f_458_265" x="54.713" y="405.121" width="6.21739" height="93.2609" filterUnits="userSpaceOnUse" color-interpolation-filters="sRGB">
<feFlood flood-opacity="0" result="BackgroundImageFix"/>
<feBlend mode="normal" in="SourceGraphic" in2="BackgroundImageFix" result="shape"/>
<feGaussianBlur stdDeviation="1.24348" result="effect1_foregroundBlur_458_265"/>
</filter>
<filter id="filter1_f_458_265" x="82.0696" y="436.207" width="3.73043" height="90.7739" filterUnits="userSpaceOnUse" color-interpolation-filters="sRGB">
<feFlood flood-opacity="0" result="BackgroundImageFix"/>
<feBlend mode="normal" in="SourceGraphic" in2="BackgroundImageFix" result="shape"/>
<feGaussianBlur stdDeviation="0.621739" result="effect1_foregroundBlur_458_265"/>
</filter>
<filter id="filter2_f_458_265" x="105.696" y="422.53" width="6.21739" height="93.2609" filterUnits="userSpaceOnUse" color-interpolation-filters="sRGB">
<feFlood flood-opacity="0" result="BackgroundImageFix"/>
<feBlend mode="normal" in="SourceGraphic" in2="BackgroundImageFix" result="shape"/>
<feGaussianBlur stdDeviation="1.24348" result="effect1_foregroundBlur_458_265"/>
</filter>
<filter id="filter3_f_458_265" x="119.996" y="389.209" width="3.73043" height="52.2261" filterUnits="userSpaceOnUse" color-interpolation-filters="sRGB">
<feFlood flood-opacity="0" result="BackgroundImageFix"/>
<feBlend mode="normal" in="SourceGraphic" in2="BackgroundImageFix" result="shape"/>
<feGaussianBlur stdDeviation="0.621739" result="effect1_foregroundBlur_458_265"/>
</filter>
<filter id="filter4_f_458_265" x="178.439" y="233.773" width="3.73044" height="90.7739" filterUnits="userSpaceOnUse" color-interpolation-filters="sRGB">
<feFlood flood-opacity="0" result="BackgroundImageFix"/>
<feBlend mode="normal" in="SourceGraphic" in2="BackgroundImageFix" result="shape"/>
<feGaussianBlur stdDeviation="0.621739" result="effect1_foregroundBlur_458_265"/>
</filter>
<filter id="filter5_f_458_265" x="5.59569" y="164.14" width="6.21739" height="93.2609" filterUnits="userSpaceOnUse" color-interpolation-filters="sRGB">
<feFlood flood-opacity="0" result="BackgroundImageFix"/>
<feBlend mode="normal" in="SourceGraphic" in2="BackgroundImageFix" result="shape"/>
<feGaussianBlur stdDeviation="1.24348" result="effect1_foregroundBlur_458_265"/>
</filter>
<filter id="filter6_f_458_265" x="16.7869" y="302.165" width="3.73044" height="90.7739" filterUnits="userSpaceOnUse" color-interpolation-filters="sRGB">
<feFlood flood-opacity="0" result="BackgroundImageFix"/>
<feBlend mode="normal" in="SourceGraphic" in2="BackgroundImageFix" result="shape"/>
<feGaussianBlur stdDeviation="0.621739" result="effect1_foregroundBlur_458_265"/>
</filter>
<filter id="filter7_f_458_265" x="149.217" y="255.903" width="6.2174" height="93.2608" filterUnits="userSpaceOnUse" color-interpolation-filters="sRGB">
<feFlood flood-opacity="0" result="BackgroundImageFix"/>
<feBlend mode="normal" in="SourceGraphic" in2="BackgroundImageFix" result="shape"/>
<feGaussianBlur stdDeviation="1.24348" result="effect1_foregroundBlur_458_265"/>
</filter>
<linearGradient id="paint0_linear_458_265" x1="32.3304" y1="4.97363" x2="32.3304" y2="93.2606" gradientUnits="userSpaceOnUse">
<stop stop-color="white" stop-opacity="0"/>
<stop offset="0.5" stop-color="white"/>
<stop offset="1" stop-color="white" stop-opacity="0"/>
</linearGradient>
<linearGradient id="paint1_linear_458_265" x1="57.8217" y1="407.608" x2="57.8217" y2="495.895" gradientUnits="userSpaceOnUse">
<stop stop-color="white" stop-opacity="0"/>
<stop offset="0.5" stop-color="white"/>
<stop offset="1" stop-color="white" stop-opacity="0"/>
</linearGradient>
<linearGradient id="paint2_linear_458_265" x1="71.5" y1="350.407" x2="71.5" y2="438.694" gradientUnits="userSpaceOnUse">
<stop stop-color="white" stop-opacity="0"/>
<stop offset="0.5" stop-color="white"/>
<stop offset="1" stop-color="white" stop-opacity="0"/>
</linearGradient>
<linearGradient id="paint3_linear_458_265" x1="83.9348" y1="437.45" x2="83.9348" y2="525.737" gradientUnits="userSpaceOnUse">
<stop stop-color="white" stop-opacity="0"/>
<stop offset="0.5" stop-color="white"/>
<stop offset="1" stop-color="white" stop-opacity="0"/>
</linearGradient>
<linearGradient id="paint4_linear_458_265" x1="83.9347" y1="275.799" x2="83.9347" y2="364.086" gradientUnits="userSpaceOnUse">
<stop stop-color="white" stop-opacity="0"/>
<stop offset="0.5" stop-color="white"/>
<stop offset="1" stop-color="white" stop-opacity="0"/>
</linearGradient>
<linearGradient id="paint5_linear_458_265" x1="95.1261" y1="300.668" x2="95.1261" y2="388.955" gradientUnits="userSpaceOnUse">
<stop stop-color="white" stop-opacity="0"/>
<stop offset="0.5" stop-color="white"/>
<stop offset="1" stop-color="white" stop-opacity="0"/>
</linearGradient>
<linearGradient id="paint6_linear_458_265" x1="108.804" y1="425.017" x2="108.804" y2="513.304" gradientUnits="userSpaceOnUse">
<stop stop-color="white" stop-opacity="0"/>
<stop offset="0.5" stop-color="white"/>
<stop offset="1" stop-color="white" stop-opacity="0"/>
</linearGradient>
<linearGradient id="paint7_linear_458_265" x1="96.3695" y1="176.319" x2="96.3695" y2="264.606" gradientUnits="userSpaceOnUse">
<stop stop-color="white" stop-opacity="0"/>
<stop offset="0.5" stop-color="white"/>
<stop offset="1" stop-color="white" stop-opacity="0"/>
</linearGradient>
<linearGradient id="paint8_linear_458_265" x1="121.861" y1="390.452" x2="121.861" y2="440.191" gradientUnits="userSpaceOnUse">
<stop stop-color="white" stop-opacity="0"/>
<stop offset="0.5" stop-color="white"/>
<stop offset="1" stop-color="white" stop-opacity="0"/>
</linearGradient>
<linearGradient id="paint9_linear_458_265" x1="32.9522" y1="114.147" x2="32.9522" y2="202.433" gradientUnits="userSpaceOnUse">
<stop stop-color="white" stop-opacity="0"/>
<stop offset="0.5" stop-color="white"/>
<stop offset="1" stop-color="white" stop-opacity="0"/>
</linearGradient>
<linearGradient id="paint10_linear_458_265" x1="1.2435" y1="4.97363" x2="1.2435" y2="93.2606" gradientUnits="userSpaceOnUse">
<stop stop-color="white" stop-opacity="0"/>
<stop offset="0.5" stop-color="white"/>
<stop offset="1" stop-color="white" stop-opacity="0"/>
</linearGradient>
<linearGradient id="paint11_linear_458_265" x1="185.278" y1="4.97363" x2="185.278" y2="93.2606" gradientUnits="userSpaceOnUse">
<stop stop-color="white" stop-opacity="0"/>
<stop offset="0.5" stop-color="white"/>
<stop offset="1" stop-color="white" stop-opacity="0"/>
</linearGradient>
<linearGradient id="paint12_linear_458_265" x1="167.87" y1="98.2344" x2="167.87" y2="186.521" gradientUnits="userSpaceOnUse">
<stop stop-color="white" stop-opacity="0"/>
<stop offset="0.5" stop-color="white"/>
<stop offset="1" stop-color="white" stop-opacity="0"/>
</linearGradient>
<linearGradient id="paint13_linear_458_265" x1="180.304" y1="235.017" x2="180.304" y2="323.304" gradientUnits="userSpaceOnUse">
<stop stop-color="white" stop-opacity="0"/>
<stop offset="0.5" stop-color="white"/>
<stop offset="1" stop-color="white" stop-opacity="0"/>
</linearGradient>
<linearGradient id="paint14_linear_458_265" x1="8.70438" y1="166.627" x2="8.70438" y2="254.914" gradientUnits="userSpaceOnUse">
<stop stop-color="white" stop-opacity="0"/>
<stop offset="0.5" stop-color="white"/>
<stop offset="1" stop-color="white" stop-opacity="0"/>
</linearGradient>
<linearGradient id="paint15_linear_458_265" x1="18.6521" y1="303.408" x2="18.6521" y2="391.695" gradientUnits="userSpaceOnUse">
<stop stop-color="white" stop-opacity="0"/>
<stop offset="0.5" stop-color="white"/>
<stop offset="1" stop-color="white" stop-opacity="0"/>
</linearGradient>
<linearGradient id="paint16_linear_458_265" x1="57.8217" y1="22.1299" x2="57.8217" y2="110.417" gradientUnits="userSpaceOnUse">
<stop stop-color="white" stop-opacity="0"/>
<stop offset="0.5" stop-color="white"/>
<stop offset="1" stop-color="white" stop-opacity="0"/>
</linearGradient>
<linearGradient id="paint17_linear_458_265" x1="76.4739" y1="0.990377" x2="76.4739" y2="89.2773" gradientUnits="userSpaceOnUse">
<stop stop-color="white" stop-opacity="0"/>
<stop offset="0.5" stop-color="white"/>
<stop offset="1" stop-color="white" stop-opacity="0"/>
</linearGradient>
<linearGradient id="paint18_linear_458_265" x1="51.6043" y1="63.1638" x2="51.6043" y2="151.45" gradientUnits="userSpaceOnUse">
<stop stop-color="white" stop-opacity="0"/>
<stop offset="0.5" stop-color="white"/>
<stop offset="1" stop-color="white" stop-opacity="0"/>
</linearGradient>
<linearGradient id="paint19_linear_458_265" x1="88.9087" y1="150.206" x2="88.9087" y2="238.493" gradientUnits="userSpaceOnUse">
<stop stop-color="white" stop-opacity="0"/>
<stop offset="0.5" stop-color="white"/>
<stop offset="1" stop-color="white" stop-opacity="0"/>
</linearGradient>
<linearGradient id="paint20_linear_458_265" x1="131.809" y1="13.6779" x2="131.809" y2="101.965" gradientUnits="userSpaceOnUse">
<stop stop-color="white" stop-opacity="0"/>
<stop offset="0.5" stop-color="white"/>
<stop offset="1" stop-color="white" stop-opacity="0"/>
</linearGradient>
<linearGradient id="paint21_linear_458_265" x1="119.996" y1="299.424" x2="119.996" y2="387.711" gradientUnits="userSpaceOnUse">
<stop stop-color="white" stop-opacity="0"/>
<stop offset="0.5" stop-color="white"/>
<stop offset="1" stop-color="white" stop-opacity="0"/>
</linearGradient>
<linearGradient id="paint22_linear_458_265" x1="57.8217" y1="249.686" x2="57.8217" y2="337.973" gradientUnits="userSpaceOnUse">
<stop stop-color="white" stop-opacity="0"/>
<stop offset="0.5" stop-color="white"/>
<stop offset="1" stop-color="white" stop-opacity="0"/>
</linearGradient>
<linearGradient id="paint23_linear_458_265" x1="126.213" y1="88.0337" x2="126.213" y2="176.32" gradientUnits="userSpaceOnUse">
<stop stop-color="white" stop-opacity="0"/>
<stop offset="0.5" stop-color="white"/>
<stop offset="1" stop-color="white" stop-opacity="0"/>
</linearGradient>
<linearGradient id="paint24_linear_458_265" x1="101.965" y1="19.8945" x2="101.965" y2="67.1467" gradientUnits="userSpaceOnUse">
<stop stop-color="white" stop-opacity="0"/>
<stop offset="0.5" stop-color="white"/>
<stop offset="1" stop-color="white" stop-opacity="0"/>
</linearGradient>
<linearGradient id="paint25_linear_458_265" x1="77.0956" y1="144.243" x2="77.0956" y2="191.495" gradientUnits="userSpaceOnUse">
<stop stop-color="white" stop-opacity="0"/>
<stop offset="0.5" stop-color="white"/>
<stop offset="1" stop-color="white" stop-opacity="0"/>
</linearGradient>
<linearGradient id="paint26_linear_458_265" x1="152.326" y1="258.389" x2="152.326" y2="346.676" gradientUnits="userSpaceOnUse">
<stop stop-color="white" stop-opacity="0"/>
<stop offset="0.5" stop-color="white"/>
<stop offset="1" stop-color="white" stop-opacity="0"/>
</linearGradient>
<linearGradient id="paint27_linear_458_265" x1="28.6" y1="308.383" x2="28.6" y2="355.635" gradientUnits="userSpaceOnUse">
<stop stop-color="white" stop-opacity="0"/>
<stop offset="0.5" stop-color="white"/>
<stop offset="1" stop-color="white" stop-opacity="0"/>
</linearGradient>
<linearGradient id="paint28_linear_458_265" x1="139.891" y1="407.606" x2="139.891" y2="495.893" gradientUnits="userSpaceOnUse">
<stop stop-color="white" stop-opacity="0"/>
<stop offset="0.5" stop-color="white"/>
<stop offset="1" stop-color="white" stop-opacity="0"/>
</linearGradient>
</defs>
</svg>
