<svg preserveAspectRatio="none" width="100%" height="100%" overflow="visible" style="display: block;" viewBox="0 0 41.25 41.25" fill="none" xmlns="http://www.w3.org/2000/svg">
<g id="SVG">
<path id="Vector" fill-rule="evenodd" clip-rule="evenodd" d="M19.3975 2.28537C20.171 2.31222 21.0684 2.51446 22.042 2.73388L22.1421 2.75644C29.8558 4.49351 36.0486 9.89 38.2146 16.8945L38.2466 16.9979L38.3847 17.4465C38.61 18.1871 38.8044 18.8901 38.8624 19.528C38.9449 20.434 38.7649 21.267 38.1707 22.073C37.537 22.9321 36.695 23.3214 35.7448 23.4931C35.5632 23.5261 35.3719 23.5518 35.1721 23.572C34.616 30.6408 29.25 36.4045 22.1838 38.3752L22.0816 38.4038C21.1514 38.6634 20.2781 38.9072 19.5097 38.962C18.6075 39.0262 17.7767 38.8416 16.9829 38.239C16.1414 37.6001 15.7664 36.7574 15.601 35.8156C15.5905 35.7561 15.5808 35.6956 15.5717 35.6339C10.2028 35.2472 5.59463 32.2254 3.41491 27.9057L3.36199 27.8006C2.9849 27.0541 2.59768 26.2878 2.44539 25.5431C2.25701 24.6231 2.4191 23.7752 2.9538 22.9067C3.54574 21.9449 4.37431 21.4627 5.37343 21.2486C5.56764 21.207 5.77221 21.1749 5.98585 21.1501C6.58948 16.5661 10.5943 13.0741 15.4543 12.543L15.4546 8.01356C15.4569 7.04771 15.4738 6.18821 15.5927 5.47656C15.7474 4.55178 16.0979 3.71143 16.9059 3.06528C17.6766 2.44885 18.5037 2.25434 19.3975 2.28537ZM32.5764 23.6447H18.0331V33.2591C18.0363 34.2264 18.0536 34.8759 18.1403 35.3695C18.2295 35.878 18.3641 36.0506 18.5419 36.1856C18.7673 36.3565 18.9553 36.4167 19.3265 36.3904C19.6975 36.364 20.1543 36.2574 20.8419 36.0711L21.4911 35.892C27.5815 34.1932 31.995 29.3656 32.5764 23.6447ZM15.4543 23.6447H8.53214C7.2331 23.6447 6.46401 23.6515 5.91384 23.7695C5.48243 23.8619 5.3124 23.9931 5.1493 24.2582C4.92878 24.6163 4.925 24.8011 4.97106 25.0262C5.04582 25.3918 5.26378 25.8464 5.71667 26.7443C7.41926 30.1185 11.0606 32.6233 15.4543 33.0375V23.6447ZM19.3081 4.86192C18.9002 4.84777 18.7133 4.92097 18.5162 5.0786C18.3562 5.20652 18.2231 5.3798 18.1357 5.90178C18.0475 6.42863 18.0345 7.12946 18.0327 8.19054L18.0324 12.4728L18.0337 21.0666H32.8149C33.9901 21.0657 34.736 21.0556 35.2859 20.9562C35.7845 20.866 35.9566 20.7314 36.0958 20.5427C36.2742 20.3007 36.3268 20.1122 36.295 19.7615C36.2529 19.2993 36.0752 18.7027 35.7516 17.6562C33.888 11.6294 28.4914 6.82891 21.5758 5.27157C20.4678 5.0221 19.8103 4.87935 19.3081 4.86192ZM15.4543 15.1384C11.9124 15.6248 9.22534 18.0816 8.61569 21.0666H15.4543V15.1384Z" fill="var(--fill-0, white)"/>
</g>
</svg>
