<svg preserveAspectRatio="none" width="100%" height="100%" overflow="visible" style="display: block;" viewBox="0 0 41.25 41.25" fill="none" xmlns="http://www.w3.org/2000/svg">
<g id="SVG">
<path id="Vector" d="M13.2163 24.8764C17.7499 22.0729 23.5004 22.0729 28.0342 24.8764C28.1678 24.959 28.337 25.0584 28.5313 25.1721C29.4118 25.6873 30.8091 26.5052 31.7629 27.4746C32.3619 28.0834 32.9594 28.9133 33.0683 29.9482C33.1847 31.0552 32.7158 32.0802 31.8195 32.9669C30.3386 34.4321 28.5034 35.6647 26.098 35.6647H15.1523C12.747 35.6647 10.9118 34.4321 9.43084 32.9669C8.53456 32.0802 8.06439 31.0552 8.1808 29.9482C8.2897 28.9136 8.88736 28.0834 9.48624 27.4746C10.44 26.5051 11.8385 25.6873 12.719 25.1721C12.9135 25.0584 13.0826 24.959 13.2163 24.8764ZM26.6783 27.0692C22.9756 24.7797 18.2748 24.7797 14.572 27.0692C14.3497 27.2066 14.1116 27.3473 13.8658 27.4922C12.986 28.011 12.0086 28.5866 11.3242 29.2823C10.9034 29.71 10.7657 30.0225 10.7451 30.2176C10.7321 30.3406 10.739 30.6336 11.2449 31.134C12.5038 32.3796 13.7211 33.0866 15.1523 33.0866H26.098C27.5292 33.0866 28.7465 32.3796 30.0055 31.134C30.5113 30.6336 30.5182 30.3406 30.5053 30.2176C30.4847 30.0225 30.3458 29.7101 29.925 29.2823C29.2405 28.5867 28.2643 28.0109 27.3846 27.4922C27.1388 27.3473 26.9006 27.2066 26.6783 27.0692ZM8.47789 21.0595C9.18672 20.9957 9.81357 21.5189 9.87774 22.2277C9.94188 22.9367 9.41856 23.5633 8.70952 23.6275C7.60908 23.7272 6.50149 24.153 5.48687 24.9343C5.32338 25.0601 5.15321 25.1849 4.98207 25.3107C4.39847 25.7395 3.7978 26.1809 3.36948 26.7231C3.11526 27.045 3.02388 27.2874 3.00944 27.4582C2.99855 27.5886 3.01746 27.8182 3.31284 28.1821C4.16429 29.2311 4.85811 29.6486 5.54477 29.6486C6.25658 29.6488 6.83383 30.2259 6.83383 30.9377C6.83383 31.6495 6.25658 32.2266 5.54477 32.2267C3.6557 32.2267 2.29929 31.0233 1.31126 29.806C0.66602 29.0108 0.365498 28.1384 0.441396 27.2404C0.513896 26.3829 0.916004 25.6693 1.34651 25.1243C2.02028 24.2716 3.02063 23.5449 3.60615 23.119C3.72932 23.0294 3.83368 22.9525 3.91331 22.8911C5.29569 21.8266 6.8648 21.2054 8.47789 21.0595ZM32.7725 21.0595C34.3854 21.2054 35.9535 21.8267 37.3358 22.8911C37.4154 22.9525 37.5209 23.0293 37.6442 23.119C38.2296 23.5449 39.2289 24.2717 39.9026 25.1243C40.3331 25.6693 40.7365 26.3829 40.8089 27.2404C40.8848 28.1385 40.5832 29.0107 39.9379 29.806C38.9498 31.0233 37.5945 32.2266 35.7056 32.2267C34.9937 32.2267 34.4166 31.6496 34.4166 30.9377C34.4166 30.2257 34.9937 29.6486 35.7056 29.6486C36.3921 29.6485 37.0851 29.2307 37.9362 28.1821C38.2317 27.818 38.2505 27.5886 38.2397 27.4582C38.2252 27.2874 38.134 27.045 37.8796 26.7231C37.4513 26.1808 36.8507 25.7395 36.267 25.3107C36.0961 25.185 35.9268 25.0599 35.7635 24.9343C34.7488 24.1528 33.64 23.7271 32.5396 23.6275C31.8307 23.5632 31.3085 22.9366 31.3726 22.2277C31.4368 21.5188 32.0635 20.9954 32.7725 21.0595ZM9.45351 9.02362C10.1652 9.02388 10.7426 9.60092 10.7426 10.3127C10.7426 11.0245 10.1652 11.6015 9.45351 11.6017C7.79247 11.6017 6.44508 12.9482 6.44485 14.6091C6.44485 16.2703 7.79233 17.6178 9.45351 17.6178C10.1652 17.6181 10.7426 18.195 10.7426 18.9069C10.7423 19.6184 10.1651 20.1957 9.45351 20.1959C6.36847 20.1959 3.86672 17.6941 3.86672 14.6091C3.86695 11.5243 6.36861 9.02362 9.45351 9.02362ZM20.6245 5.5857C24.6587 5.5857 27.9296 8.85655 27.9296 12.8908C27.9296 16.9251 24.6587 20.1959 20.6245 20.1959C16.5904 20.1958 13.3207 16.9249 13.3207 12.8908C13.3207 8.85664 16.5904 5.58586 20.6245 5.5857ZM30.937 9.02362C34.022 9.02362 36.5235 11.5243 36.5238 14.6091C36.5238 17.6941 34.0221 20.1959 30.937 20.1959C30.2254 20.1958 29.6482 19.6186 29.6479 18.9069C29.6479 18.195 30.2252 17.6179 30.937 17.6178C32.5982 17.6178 33.9457 16.2703 33.9457 14.6091C33.9454 12.9482 32.5981 11.6017 30.937 11.6017C30.2252 11.6016 29.6479 11.0245 29.6479 10.3127C29.6479 9.60085 30.2252 9.02378 30.937 9.02362ZM20.6245 8.16383C18.0143 8.16398 15.8988 10.2805 15.8988 12.8908C15.8988 15.5012 18.0143 17.6177 20.6245 17.6178C23.235 17.6178 25.3515 15.5012 25.3515 12.8908C25.3515 10.2804 23.235 8.16383 20.6245 8.16383Z" fill="var(--fill-0, white)"/>
</g>
</svg>
