<svg preserveAspectRatio="none" width="100%" height="100%" overflow="visible" style="display: block;" viewBox="0 0 41.25 41.25" fill="none" xmlns="http://www.w3.org/2000/svg">
<g id="SVG">
<path id="Vector" fill-rule="evenodd" clip-rule="evenodd" d="M20.625 2.14941C22.7609 2.14941 24.4922 3.88082 24.4922 6.0166C24.4921 7.69965 23.4152 9.12719 21.9141 9.65846V12.4619H22.4378C24.7882 12.4619 26.683 12.4618 28.1731 12.6621C29.7201 12.8701 31.0234 13.3144 32.0578 14.349C33.0924 15.3835 33.5368 16.6867 33.7447 18.2337C33.7914 18.5808 33.8255 18.9499 33.853 19.3415C34.5323 19.3496 35.1373 19.3723 35.6569 19.4422C36.502 19.5559 37.3124 19.8124 37.9695 20.4695C38.626 21.1262 38.8817 21.936 38.9954 22.7807C39.1014 23.5691 39.1013 24.5548 39.1011 25.6975V25.8661C39.1013 27.0089 39.1014 27.9945 38.9954 28.7829C38.8817 29.6276 38.626 30.4374 37.9695 31.0942C37.3124 31.7512 36.502 32.0077 35.6569 32.1214C35.1373 32.1913 34.5323 32.2127 33.853 32.2208C33.8255 32.6129 33.7915 32.9824 33.7447 33.3299C33.5368 34.8769 33.0924 36.1802 32.0578 37.2146C31.0234 38.2492 29.7201 38.6936 28.1731 38.9015C26.683 39.1018 24.7882 39.1017 22.4378 39.1017H18.8123C16.4619 39.1017 14.5671 39.1018 13.0769 38.9015C11.5299 38.6936 10.2267 38.2492 9.19214 37.2146C8.1576 36.1802 7.71327 34.8769 7.50528 33.3299C7.45857 32.9824 7.42322 32.6129 7.39576 32.2208C6.71702 32.2127 6.11248 32.1912 5.59309 32.1214C4.74808 32.0077 3.93757 31.7512 3.28057 31.0942C2.62403 30.4374 2.36823 29.6276 2.25462 28.7829C2.14861 27.9945 2.14882 27.0089 2.14887 25.8661V25.6975C2.14882 24.5548 2.14861 23.5691 2.25462 22.7807C2.36823 21.936 2.62403 21.1262 3.28057 20.4695C3.93757 19.8124 4.74808 19.5559 5.59309 19.4422C6.11248 19.3725 6.71701 19.3496 7.39576 19.3415C7.42321 18.9499 7.45862 18.5808 7.50528 18.2337C7.71327 16.6867 8.1576 15.3835 9.19214 14.349C10.2267 13.3144 11.5299 12.8701 13.0769 12.6621C14.5671 12.4618 16.4619 12.4619 18.8123 12.4619H19.336V9.65846C17.8348 9.12719 16.758 7.69965 16.7578 6.0166C16.7578 3.88082 18.4892 2.14941 20.625 2.14941ZM18.9067 15.0401C16.4398 15.0401 14.7188 15.0419 13.4206 15.2163C12.1594 15.3858 11.4906 15.6961 11.0149 16.1717C10.5393 16.6474 10.229 17.3163 10.0595 18.5774C9.88501 19.8756 9.88326 21.5966 9.88326 24.0635V27.5001C9.88326 29.967 9.88501 31.688 10.0595 32.9863C10.229 34.2473 10.5393 34.9162 11.0149 35.3919C11.4906 35.8676 12.1594 36.1778 13.4206 36.3474C14.7188 36.5218 16.4398 36.5236 18.9067 36.5236H22.3433C24.8102 36.5236 26.5312 36.5218 27.8295 36.3474C29.0905 36.1778 29.7594 35.8676 30.2351 35.3919C30.7108 34.9162 31.021 34.2473 31.1906 32.9863C31.365 31.688 31.3668 29.967 31.3668 27.5001V24.0635C31.3668 21.5966 31.365 19.8756 31.1906 18.5774C31.021 17.3163 30.7108 16.6474 30.2351 16.1717C29.7594 15.6961 29.0905 15.3858 27.8295 15.2163C26.5312 15.0419 24.8102 15.0401 22.3433 15.0401H18.9067ZM23.3064 29.0346C23.8749 28.6226 24.6711 28.7415 25.0939 29.3053C25.521 29.8748 25.4054 30.6833 24.8359 31.1105L24.8346 31.1118L24.8321 31.113L24.817 31.1243L24.7905 31.1433C24.7706 31.1573 24.7459 31.1742 24.7162 31.1936C24.6569 31.2325 24.5779 31.2819 24.4796 31.3372C24.2831 31.4476 24.0087 31.5839 23.6564 31.716C22.9485 31.9814 21.9357 32.2271 20.625 32.2271C19.3148 32.2271 18.3026 31.9813 17.5949 31.716C17.2424 31.5839 16.967 31.4476 16.7705 31.3372C16.6721 31.2819 16.5931 31.2325 16.5338 31.1936C16.5041 31.1742 16.4794 31.1573 16.4595 31.1433L16.433 31.1243L16.4179 31.113L16.4167 31.1118L16.4142 31.1105C15.8447 30.6833 15.729 29.8748 16.1561 29.3053C16.5789 28.7415 17.3752 28.6228 17.9436 29.0346L17.9423 29.0335L17.9487 29.0385L18.0343 29.0901C18.1242 29.1406 18.2799 29.219 18.5001 29.3016C18.9381 29.4658 19.6444 29.649 20.625 29.649C21.606 29.649 22.3132 29.4658 22.7512 29.3016C22.971 29.2191 23.1259 29.1406 23.2158 29.0901C23.2601 29.0651 23.2889 29.0466 23.3014 29.0385L23.3064 29.0346ZM7.31267 21.9234C6.74082 21.9318 6.29938 21.9489 5.93675 21.9978C5.37803 22.0728 5.20282 22.1942 5.10465 22.2923C5.00655 22.3904 4.88526 22.5656 4.81009 23.1244C4.72993 23.7206 4.72699 24.53 4.72699 25.7818C4.72699 27.0336 4.72993 27.843 4.81009 28.4392C4.88526 28.998 5.00655 29.1732 5.10465 29.2713C5.20282 29.3694 5.37802 29.4908 5.93675 29.5659C6.29938 29.6147 6.74082 29.6307 7.31267 29.6389C7.30683 28.9998 7.30512 28.3187 7.30513 27.5945V23.9691C7.30512 23.2444 7.30682 22.5629 7.31267 21.9234ZM33.9361 21.9234C33.9419 22.5629 33.9449 23.2444 33.9449 23.9691V27.5945C33.9449 28.3187 33.9419 28.9998 33.9361 29.6389C34.5086 29.6307 34.9504 29.6147 35.3132 29.5659C35.872 29.4908 36.0472 29.3694 36.1453 29.2713C36.2434 29.1732 36.3647 28.998 36.44 28.4392C36.5201 27.843 36.523 27.0336 36.523 25.7818C36.523 24.53 36.5201 23.7206 36.44 23.1244C36.3647 22.5656 36.2434 22.3904 36.1453 22.2923C36.0472 22.1942 35.872 22.0728 35.3132 21.9978C34.9504 21.9489 34.5086 21.9316 33.9361 21.9234ZM15.4688 21.0548C16.1806 21.0548 16.7576 21.6322 16.7578 22.3439V24.0635C16.7576 24.7752 16.1806 25.3526 15.4688 25.3526C14.7569 25.3526 14.18 24.7752 14.1797 24.0635V22.3439C14.18 21.6322 14.7569 21.0548 15.4688 21.0548ZM25.7813 21.0548C26.4931 21.0548 27.0701 21.6322 27.0703 22.3439V24.0635C27.0701 24.7752 26.4931 25.3526 25.7813 25.3526C25.0694 25.3526 24.4925 24.7752 24.4922 24.0635V22.3439C24.4925 21.6322 25.0694 21.0548 25.7813 21.0548ZM20.625 4.72754C19.9131 4.72754 19.336 5.30468 19.336 6.0166C19.3362 6.72834 19.9132 7.30566 20.625 7.30566C21.3368 7.30566 21.9138 6.72834 21.9141 6.0166C21.9141 5.30468 21.337 4.72754 20.625 4.72754Z" fill="var(--fill-0, white)"/>
</g>
</svg>
